#!OML:ASF F:\VICON\USERDATA\INSTALL\rory3\rory3.ASF
:FULLY-SPECIFIED
:DEGREES
2769
root -0.458967 17.8749 -2.64242 -9.2747 -72.2798 14.733
lowerback 12.4376 4.00694 2.03259
upperback 1.27451 5.66428 2.20184
thorax -5.64149 2.73071 0.207116
lowerneck -23.1697 7.39634 -4.06899
upperneck 22.2885 12.1615 -1.46847
head 10.8682 4.94658 2.02902
rclavicle 1.19271e-014 -6.36111e-015
rhumerus -1.77379 21.252 -80.8886
rradius 105.81
rwrist 2.93372
rhand -17.6069 28.864
rfingers 7.12502
rthumb 8.64973 -0.938845
lclavicle 1.19271e-014 -6.36111e-015
lhumerus -21.5643 2.32056 83.0499
lradius 122.435
lwrist -12.7778
lhand -9.90885 5.49024
lfingers 7.12502
lthumb 16.0714 34.8438
rfemur -14.2324 -4.51631 7.02064
rtibia 48.2458
rfoot -5.28565 4.9456
rtoes 5.25241
lfemur -40.4435 7.74404 -16.8547
ltibia 70.0558
lfoot 2.14715 -8.37938
ltoes -17.2955
2770
root -0.488504 17.9095 -2.56401 -12.4331 -72.9768 17.7072
lowerback 12.9593 4.09683 1.83861
upperback 1.33137 5.7614 2.08403
thorax -5.87696 2.77584 0.138582
lowerneck -23.1505 7.53173 -3.95747
upperneck 22.3291 12.3763 -1.69773
head 10.9025 5.01979 1.96577
rclavicle 4.13472e-014 0
rhumerus -2.09239 21.3644 -80.8536
rradius 105.488
rwrist 3.38035
rhand -17.4388 28.9562
rfingers 7.12502
rthumb 8.81191 -0.83985
lclavicle 4.13472e-014 0
lhumerus -21.605 2.29987 82.4688
lradius 122.442
lwrist -12.5121
lhand -10.1716 6.21844
lfingers 7.12502
lthumb 15.8184 35.5922
rfemur -15.3128 -4.17495 5.83668
rtibia 50.0054
rfoot -4.11355 3.8907
rtoes 2.97626
lfemur -40.1019 7.54358 -17.3107
ltibia 68.5736
lfoot 2.38282 -8.46577
ltoes -18.2392
2771
root -0.522338 17.9318 -2.49011 -15.7454 -73.627 20.8605
lowerback 13.2788 4.1989 1.67397
upperback 1.47751 5.86105 1.87814
thorax -5.89284 2.82447 -0.0206079
lowerneck -23.1963 7.62261 -3.77344
upperneck 22.2795 12.4728 -1.82372
head 10.9133 5.06375 1.90971
rclavicle 8.46823e-014 -3.18055e-015
rhumerus -2.45656 21.3638 -80.9958
rradius 105.303
rwrist 4.31162
rhand -17.4735 28.9947
rfingers 7.12502
rthumb 8.77839 -0.802721
lclavicle 8.46823e-014 -3.18055e-015
lhumerus -21.2787 2.276 81.6169
lradius 122.369
lwrist -12.2627
lhand -10.1841 6.03602
lfingers 7.12502
lthumb 15.8063 35.4107
rfemur -16.3908 -3.89181 4.73003
rtibia 51.7073
rfoot -3.60641 2.90758
rtoes 0.590117
lfemur -39.722 7.31745 -17.6338
ltibia 66.913
lfoot 2.77495 -8.48217
ltoes -19.0627
2772
root -0.561499 17.9379 -2.4219 -19.1109 -74.1851 24.1082
lowerback 13.5063 4.34658 1.42141
upperback 1.60279 6.00704 1.68602
thorax -5.88968 2.89879 -0.119872
lowerneck -23.2172 7.67841 -3.58882
upperneck 22.22 12.515 -1.93961
head 10.916 5.08555 1.84742
rclavicle 2.82274e-014 7.95139e-015
rhumerus -2.94089 21.2097 -81.1105
rradius 105.242
rwrist 5.45603
rhand -17.2371 29.1948
rfingers 7.12502
rthumb 9.00658 -0.592949
lclavicle 2.82274e-014 7.95139e-015
lhumerus -20.8213 2.14698 80.706
lradius 122.204
lwrist -12.2076
lhand -9.87046 4.89418
lfingers 7.12502
lthumb 16.1084 34.2447
rfemur -17.3465 -3.57306 3.7261
rtibia 53.2536
rfoot -4.38803 1.56529
rtoes 1.57214
lfemur -39.3502 7.13475 -17.834
ltibia 65.1048
lfoot 3.33333 -8.57539
ltoes -19.7993
2773
root -0.60344 17.9311 -2.35906 -22.9727 -74.6909 27.8562
lowerback 13.7443 4.52545 1.02536
upperback 1.7369 6.16836 1.44156
thorax -5.89203 2.98314 -0.198721
lowerneck -23.3239 7.78928 -3.32624
upperneck 22.2242 12.6145 -2.04775
head 10.962 5.1356 1.79127
rclavicle -3.18055e-015 3.18055e-015
rhumerus -3.43648 20.962 -81.2825
rradius 105.3
rwrist 6.36576
rhand -16.6687 29.3924
rfingers 7.12502
rthumb 9.55502 -0.370978
lclavicle -3.18055e-015 3.18055e-015
lhumerus -20.1521 2.04281 79.6562
lradius 122.009
lwrist -12.175
lhand -10.1807 4.72189
lfingers 7.12502
lthumb 15.8096 34.0963
rfemur -18.1662 -3.26361 2.69614
rtibia 54.5298
rfoot -6.15462 -0.33595
rtoes 3.17257
lfemur -38.869 7.06139 -18.0367
ltibia 63.1549
lfoot 3.79429 -8.93361
ltoes -20.2561
2774
root -0.651767 17.9145 -2.30281 -26.5474 -75.1697 31.2707
lowerback 13.8317 4.62005 0.676822
upperback 1.96592 6.22271 1.29986
thorax -5.71809 3.01627 -0.160028
lowerneck -23.4468 7.93381 -3.29989
upperneck 22.159 12.8286 -2.1184
head 10.9658 5.22611 1.79935
rclavicle 2.38542e-014 3.18055e-015
rhumerus -3.71826 21.0374 -81.3082
rradius 105.364
rwrist 6.83653
rhand -16.2853 29.3393
rfingers 7.12502
rthumb 9.92492 -0.406735
lclavicle 2.38542e-014 3.18055e-015
lhumerus -19.3201 2.24087 78.6291
lradius 121.853
lwrist -12.3757
lhand -11.1042 5.60441
lfingers 7.12502
lthumb 14.9201 35.0471
rfemur -18.7775 -2.70023 1.86687
rtibia 55.3758
rfoot -8.01685 -2.16484
rtoes 2.53428
lfemur -38.2935 7.06455 -18.0051
ltibia 61.1084
lfoot 4.22355 -9.2706
ltoes -18.9886
2775
root -0.703614 17.8876 -2.24798 -29.2203 -75.6415 33.7165
lowerback 13.797 4.58311 0.511372
upperback 2.2493 6.13688 1.34757
thorax -5.42175 2.97824 0.0140484
lowerneck -23.4258 8.09376 -3.56026
upperneck 21.9225 13.1375 -2.17042
head 10.8577 5.35128 1.85778
rclavicle 3.77691e-014 -2.06736e-014
rhumerus -3.89872 21.5294 -81.1591
rradius 105.514
rwrist 6.94979
rhand -15.9366 29.2735
rfingers 7.12502
rthumb 10.2613 -0.45616
lclavicle 3.77691e-014 -2.06736e-014
lhumerus -18.5416 2.68968 77.749
lradius 121.774
lwrist -12.6802
lhand -11.6869 6.46346
lfingers 7.12502
lthumb 14.3587 35.9469
rfemur -19.0872 -1.80215 1.35069
rtibia 55.6441
rfoot -9.51207 -3.53356
rtoes 3.44758
lfemur -37.7088 7.03833 -17.6327
ltibia 59.0206
lfoot 4.69807 -9.23987
ltoes -16.427
2776
root -0.760089 17.8512 -2.19299 -31.3638 -76.0449 35.6113
lowerback 13.7977 4.5534 0.381169
upperback 2.44428 6.07348 1.45023
thorax -5.24078 2.94928 0.214003
lowerneck -23.385 8.23709 -3.83889
upperneck 21.8956 13.4062 -2.08288
head 10.8101 5.4651 1.96651
rclavicle -1.02175e-013 2.54444e-014
rhumerus -4.36915 21.9342 -80.9996
rradius 105.832
rwrist 6.90503
rhand -15.6261 29.2445
rfingers 7.12502
rthumb 10.5609 -0.470176
lclavicle -1.02175e-013 2.54444e-014
lhumerus -17.8352 3.05715 76.9161
lradius 121.723
lwrist -12.5
lhand -11.8767 6.80777
lfingers 7.12502
lthumb 14.1758 36.3041
rfemur -19.1003 -0.765671 0.985492
rtibia 55.2433
rfoot -10.4726 -4.56307
rtoes 4.69914
lfemur -37.1471 6.90524 -17.0849
ltibia 56.9541
lfoot 4.86274 -9.41628
ltoes -15.8921
2777
root -0.822681 17.8029 -2.14045 -32.8976 -76.3793 36.9026
lowerback 13.7553 4.53937 0.293593
upperback 2.57848 6.04084 1.5672
thorax -5.09761 2.93483 0.40001
lowerneck -23.2966 8.36014 -4.01642
upperneck 21.9611 13.6208 -2.01522
head 10.7967 5.55562 2.04593
rclavicle -7.79236e-014 -4.77083e-015
rhumerus -4.94979 22.1783 -81.0829
rradius 106.004
rwrist 6.81315
rhand -15.8933 29.2819
rfingers 7.12502
rthumb 10.303 -0.445736
lclavicle -7.79236e-014 -4.77083e-015
lhumerus -17.0437 3.35656 76.1224
lradius 121.652
lwrist -12.068
lhand -11.7281 6.67152
lfingers 7.12502
lthumb 14.319 36.1578
rfemur -18.8296 0.303879 0.765897
rtibia 54.1698
rfoot -10.8486 -4.44794
rtoes 3.92146
lfemur -36.6442 6.72857 -16.4412
ltibia 54.9899
lfoot 5.10861 -9.59293
ltoes -18.0882
2778
root -0.8864 17.7324 -2.09094 -33.4223 -76.6446 37.1557
lowerback 13.7334 4.45644 0.342839
upperback 2.66162 5.94072 1.71967
thorax -5.00836 2.88483 0.555314
lowerneck -23.1147 8.48028 -4.07566
upperneck 21.9879 13.8069 -2.04499
head 10.7692 5.63387 2.06395
rclavicle 1.47101e-014 -2.38542e-014
rhumerus -5.43004 22.4675 -81.4893
rradius 105.871
rwrist 6.79547
rhand -16.6996 29.3097
rfingers 7.12502
rthumb 9.52517 -0.454968
lclavicle 1.47101e-014 -2.38542e-014
lhumerus -16.28 3.67331 75.3543
lradius 121.634
lwrist -11.4904
lhand -11.474 6.44321
lfingers 7.12502
lthumb 14.5638 35.9119
rfemur -18.2666 1.36681 0.727362
rtibia 52.5402
rfoot -11.1861 -2.57284
rtoes 2.73292
lfemur -36.2749 6.54321 -15.6617
ltibia 53.1958
lfoot 5.75786 -9.13573
ltoes -19.8097
